<?xml version="1.0"?><svg width="404.3733333333333" height="501.1866666666666" xmlns="http://www.w3.org/2000/svg">
 <title>Cartoon Stone</title>

 <g>
  <title>Layer 1</title>
  <g id="g630">
   <path id="path2208" d="m126.176102,337.63446c-2.837883,-0.337982 -5.22168,-1.019562 -7.85849,-2.246826c-1.293922,-0.602264 -2.534836,-1.094971 -2.757591,-1.094971c-0.22274,0 -0.86071,-0.417206 -1.417732,-0.927155c-0.557007,-0.509918 -1.723282,-1.289917 -2.591698,-1.733307c-1.496742,-0.764191 -2.079063,-1.154968 -6.01152,-4.033997c-0.904594,-0.662292 -2.448639,-1.587921 -3.431206,-2.056976c-1.620735,-0.773682 -1.933563,-1.1091 -3.37175,-3.615479c-1.235977,-2.153961 -1.573067,-3.059326 -1.529861,-4.108856c0.031494,-0.765472 -0.17218,-1.650787 -0.472176,-2.052368c-0.415649,-0.556396 -0.527565,-1.745056 -0.527565,-5.602966c0,-4.659607 -0.127373,-5.687378 -1.100395,-8.878906c-0.267982,-0.879028 -0.51709,-5.787933 -0.690193,-13.601349c-0.148972,-6.724274 -0.351196,-13.326263 -0.449387,-14.671112c-0.538597,-7.377258 -0.12236,-10.681549 1.592148,-12.639008c0.346222,-0.395294 0.730362,-1.220551 0.853638,-1.833893c0.419609,-2.08783 1.474655,-4.448029 2.465096,-5.514557c2.952583,-3.179474 3.645821,-4.196442 4.469856,-6.557159c0.759811,-2.176819 2.563065,-5.030487 4.182014,-6.618225c0.257111,-0.252136 1.045311,-2.040192 1.751579,-3.973419c0.706238,-1.933228 1.738663,-4.419952 2.294212,-5.526062c0.555588,-1.10611 1.013008,-2.206451 1.016502,-2.44519c0.003479,-0.238739 0.473923,-1.039337 1.045448,-1.779083c0.57151,-0.739746 1.039108,-1.532501 1.039108,-1.761688c0,-0.463623 1.378563,-2.98111 3.13224,-5.720001c0.836975,-1.30719 1.580536,-2.015106 2.728806,-2.598022c0.868065,-0.440674 2.217529,-1.373413 2.998764,-2.072754c0.781265,-0.699341 2.126129,-1.577148 2.988632,-1.950684c0.862503,-0.373535 2.156693,-1.142395 2.875992,-1.708527c1.122055,-0.883148 1.559341,-1.029388 3.078308,-1.029388c1.154694,0 2.678589,-0.318939 4.381378,-0.916962c2.568359,-0.902008 2.714752,-0.916931 8.988739,-0.916931c8.712601,0 10.526886,0.365814 13.834091,2.789337c1.34996,0.989227 2.870499,1.881683 3.378967,1.983215c1.52417,0.30426 7.182709,3.145844 7.713028,3.87326c2.64093,3.622467 6.736954,11.356018 6.443787,12.166199c-0.122681,0.33902 0.086761,1.161438 0.481461,1.890686c0.384201,0.709869 0.867081,1.857269 1.07312,2.549774c0.205978,0.692505 0.664932,1.586548 1.019836,1.986725c0.354935,0.400177 0.747147,1.209015 0.871597,1.797394c0.237106,1.120972 0.775085,1.954865 2.452637,3.801788c0.955353,1.051849 0.986084,1.174622 0.570251,2.279755c-0.368698,0.979797 -0.354446,1.335052 0.088379,2.204376c0.290314,0.570007 0.705536,1.517761 0.922638,2.10611c0.217133,0.588379 0.757782,1.551178 1.201447,2.139557c0.460815,0.611176 0.878754,1.724884 0.974869,2.597992c0.092545,0.840546 0.421112,2.009644 0.730148,2.598022c0.309021,0.588379 0.754852,2.708405 0.990692,4.711212c0.380356,3.229797 0.534836,3.748077 1.366486,4.584717c0.515686,0.518799 1.056458,1.28714 1.201721,1.707397c0.25592,0.740479 1.464722,2.632935 3.532471,5.530243c2.297882,3.219849 3.656525,4.798065 5.466522,6.349915c1.052628,0.902527 2.20018,2.209167 2.550095,2.903656c0.349915,0.694489 1.199966,2.037079 1.889023,2.983551c0.689056,0.946472 1.679169,2.746185 2.200287,3.999359c0.934494,2.247253 0.945618,2.361755 0.811523,8.365509c-0.155563,6.964355 -0.364899,8.047577 -2.111221,10.923218c-0.696518,1.146973 -1.266388,2.500671 -1.266388,3.008301c0,0.507629 -0.313629,1.272644 -0.696976,1.700073c-0.46431,0.517731 -0.69696,1.23996 -0.69696,2.163666c0,0.836517 -0.219055,1.598877 -0.552231,1.921783c-0.303757,0.294373 -0.639969,1.108765 -0.747192,1.809784c-0.174042,1.138031 -0.658859,1.682953 -4.526382,5.087402c-2.796814,2.462006 -4.848877,4.007385 -5.79184,4.361908c-0.803192,0.301971 -1.67334,0.774139 -1.933701,1.049255c-0.26033,0.275146 -0.695602,0.500275 -0.967255,0.500275c-0.271683,0 -1.075775,0.251892 -1.78688,0.559814c-1.595062,0.690643 -4.118912,1.148499 -8.441498,1.531311c-3.076599,0.272491 -3.628494,0.4328 -7.666656,2.226563l-4.35141,1.932922l-4.084473,0.17514c-3.683884,0.157928 -4.171722,0.247009 -4.974182,0.908203c-1.187912,0.978851 -5.249969,1.478851 -12.373093,1.523102c-4.1371,0.025696 -5.727783,0.150818 -6.795425,0.534515c-1.297485,0.466309 -3.297089,0.558533 -7.056793,0.325531c-0.71875,-0.044556 -1.620453,-0.001648 -2.003784,0.095306c-0.383331,0.096924 -1.559479,0.073547 -2.613632,-0.052002z" fill="#c7c7c7"/>
   <path id="path2204" d="m132.100311,337.177002c-1.154907,-0.328003 -1.834412,-0.364014 -2.578506,-0.136993c-1.587509,0.484985 -3.67511,0.365997 -6.133606,-0.351013c-2.847702,-0.830994 -8.548294,-3.22998 -9.1269,-3.84201c-0.239799,-0.252991 -1.5383,-1.128998 -2.885597,-1.945984c-1.347198,-0.816986 -3.311996,-2.108002 -4.366203,-2.868988c-1.054199,-0.761017 -2.622398,-1.788025 -3.484795,-2.28302c-0.862503,-0.493988 -1.891106,-1.098999 -2.285706,-1.343994c-1.167297,-0.723999 -3.659195,-5.533997 -3.417,-6.596008c0.131004,-0.574005 -0.020401,-1.255981 -0.424202,-1.908997c-0.509796,-0.824982 -0.676498,-2.109009 -0.885498,-6.822998c-0.141495,-3.194 -0.446297,-6.563995 -0.677101,-7.488983c-0.270302,-1.082001 -0.461601,-5.653015 -0.537193,-12.837006c-0.064705,-6.136017 -0.275902,-11.912994 -0.469406,-12.837006c-1.137802,-5.434998 -0.478302,-13.652008 1.228203,-15.306c0.335098,-0.325012 0.729103,-1.174988 0.875702,-1.888c0.499695,-2.433014 1.494995,-4.35199 3.181694,-6.136993c1.938599,-2.050018 3.114204,-3.955994 3.904007,-6.330017c0.305298,-0.917999 0.828796,-2.027985 1.163391,-2.467987c0.334503,-0.438995 1.033104,-1.356018 1.552406,-2.037018c0.519295,-0.681 1.094597,-1.319 1.278404,-1.418976c0.344696,-0.187012 2.830399,-6.522003 2.830399,-7.21402c0,-0.213989 0.487495,-1.29599 1.083397,-2.405975c2.485695,-4.630005 3.074104,-5.768005 3.808701,-7.367004c0.424698,-0.924011 1.379601,-2.56601 2.121895,-3.64801c0.742302,-1.082001 1.349609,-2.078003 1.349609,-2.213013c0,-0.135986 0.868591,-0.675995 1.930099,-1.201996c1.0616,-0.524994 2.35199,-1.440002 2.867691,-2.03299c0.583801,-0.671997 1.735504,-1.391998 3.052605,-1.911011c1.163292,-0.457001 2.371208,-1.174988 2.684303,-1.593994c0.492599,-0.658997 0.893997,-0.781982 2.978104,-0.912994c1.563782,-0.097992 3.115082,-0.434998 4.42189,-0.959991c1.695404,-0.680023 2.501511,-0.808014 5.107407,-0.808014c3.335602,0 4.021606,0.386017 1.613098,0.908997c-0.814514,0.177002 -2.657104,0.609009 -4.094604,0.960999c-1.4375,0.351013 -3.522797,0.753021 -4.634003,0.891998c-2.630585,0.328003 -6.801193,1.710999 -7.930496,2.628021c-0.4897,0.39798 -1.042801,0.722992 -1.229202,0.722992c-0.537003,0 -2.288597,1.882996 -2.843201,3.056c-0.278091,0.588989 -0.787697,1.345001 -1.132492,1.681c-0.606308,0.59201 -3.488106,5.363983 -3.488106,5.777008c0,0.18399 -1.833595,2.756989 -4.102699,5.756989c-0.4748,0.627991 -0.863205,1.51001 -0.863205,1.960999c0,0.712006 -0.866699,2.612 -2.053093,4.501007c-0.198204,0.315979 -0.586601,1.346985 -0.863106,2.291992c-0.276398,0.946014 -0.994797,2.934998 -1.596298,4.42099c-0.893097,2.206024 -1.258598,2.752014 -1.993195,2.980011c-0.494804,0.153015 -1.110901,0.382996 -1.369102,0.510986c-0.588097,0.292023 -1.435005,2.381012 -1.441902,3.556c-0.002998,0.502014 -0.556595,1.614014 -1.278702,2.568024c-0.700394,0.925995 -1.312698,1.970978 -1.360596,2.324005c-0.048004,0.352997 -0.334801,1.052979 -0.637299,1.556976c-0.302505,0.503021 -0.732605,1.671997 -0.955803,2.598022c-0.223099,0.924988 -0.789299,2.85199 -1.258301,4.280975c-1.481499,4.514008 -2.172798,7.147003 -2.177101,8.291016c-0.002296,0.610992 0.322701,2.674011 0.722198,4.584991c0.399506,1.912018 0.856606,4.108002 1.0159,4.880005c0.159302,0.77301 0.514908,2.07901 0.790306,2.903992c0.398399,1.192993 0.441299,2.372009 0.210197,5.778015c-0.159798,2.354004 -0.444099,4.89798 -0.631798,5.654999c-0.530602,2.138 -0.768204,4.704987 -0.467102,5.046997c0.150101,0.169983 0.728302,0.445007 1.284904,0.610992c1.6203,0.483002 3.132095,3.178009 3.084396,5.498016c-0.023102,1.121002 0.155502,2.096985 0.459396,2.510986c0.273407,0.372009 0.497208,1.182007 0.497208,1.799011c0,0.884979 0.295097,1.403992 1.39389,2.449005c1.447105,1.376984 1.770905,2.370972 0.871201,2.673981c-0.737694,0.248016 -0.653,0.696991 0.348511,1.848999c0.479195,0.550995 0.871193,1.139008 0.871193,1.307007c0,0.518005 -1.385704,1.450012 -1.699196,1.141998c-0.158798,-0.154999 -1.174408,-1.140991 -2.256905,-2.190002c-1.843803,-1.787994 -1.968102,-2.005005 -1.968102,-3.447998c0,-1.104004 0.151901,-1.59201 0.535202,-1.721008c0.467697,-0.156982 0.472702,-0.263977 0.040298,-0.842987c-0.272293,-0.364014 -0.580795,-1.756989 -0.685593,-3.096008c-0.255707,-3.264008 -0.666603,-4.996002 -1.467705,-6.186005c-1.1717,-1.73999 -1.390404,-1.070984 -1.288002,3.936005c0.1371,6.701996 0.836899,9.959991 2.285202,10.640015c0.437103,0.204987 1.334702,0.987976 1.994499,1.738983c0.659798,0.751007 2.031799,2.07901 3.048698,2.951019c1.016998,0.871979 2.166702,2.036987 2.554901,2.587982c0.388306,0.550995 0.854301,1.002014 1.035599,1.002014c0.181305,0 1.383804,0.973999 2.672302,2.164001c1.288498,1.190002 3.440399,2.89798 4.782104,3.79599c2.041,1.36499 3.008591,1.772003 5.924194,2.489014c3.188103,0.784973 3.912704,0.85199 8.507904,0.780975c5.441406,-0.082977 6.192505,-0.251984 9.594391,-2.153992c0.947906,-0.529999 2.011414,-0.962982 2.363205,-0.962982c0.909195,0 1.157608,0.835999 0.451706,1.519989c-2.293503,2.222992 4.117294,0.992981 8.921494,-1.712006c1.729507,-0.972992 2.946304,0.484009 1.263504,1.514008c-0.777603,0.475983 -0.774002,0.47998 0.440796,0.496002c1.250397,0.015991 4.583603,-1.248993 6.860413,-2.604004c1.85379,-1.104004 3.592392,-0.972992 2.867401,0.214996c-0.489807,0.802002 -0.073822,0.735992 2.880188,-0.459991c1.399994,-0.567017 3.085999,-1.529022 3.747009,-2.139008c1.353989,-1.251007 2.806,-1.509003 2.806,-0.498016c0,0.336029 0.093994,0.611023 0.207993,0.611023c0.681992,0 2.291,-1.192017 3.072998,-2.276001c1.434006,-1.990997 2.876999,-3.244995 3.492996,-3.037994c0.628998,0.211975 0.683014,0.677002 0.205002,1.778992c-0.440994,1.018005 0.081009,1.029999 1.567001,0.036011c1.300003,-0.870026 2.606003,-3.109009 2.606003,-4.469025c0,-0.904999 0.046005,-0.934998 1.126999,-0.72699c1.294006,0.248993 2.705994,0.988007 2.705994,1.415009c0,0.160004 -0.410004,0.763 -0.911987,1.341003c-0.662003,0.759979 -0.772003,1.048981 -0.403015,1.048981c0.722015,0 1.503006,-0.842987 2.307007,-2.488007c0.76001,-1.554993 1.381012,-2.073975 1.790009,-1.494995c0.191986,0.27301 0.466003,0.184998 1.005997,-0.324005c0.770004,-0.724976 0.985001,-1.5 0.414993,-1.5c-0.181,0 -0.424988,0.137024 -0.544006,0.305023c-0.276001,0.391998 -1.809998,0.398987 -2.083984,0.009003c-0.115005,-0.163025 0.04599,-0.729004 0.356995,-1.258026c0.40799,-0.689972 0.460999,-1.053986 0.188995,-1.291992c-0.615997,-0.540009 -0.436996,-0.820984 0.524002,-0.820984c0.938004,0 2.189011,-1.025024 2.238998,-1.834015c0.029999,-0.48999 0.460999,-1.247009 2.520996,-4.423981c0.719009,-1.108002 1.307007,-2.271027 1.307007,-2.584015c0,-0.312012 0.229004,-0.644989 0.507996,-0.738007c0.619003,-0.208984 0.409012,0.388 -1.281998,3.649994c-0.182999,0.353027 -0.281998,0.903015 -0.220993,1.223022c0.061996,0.319 -0.160004,0.92099 -0.492004,1.337006c-0.332001,0.414978 -0.604004,0.909973 -0.604004,1.097992c0,0.188995 -0.294998,0.578003 -0.656998,0.86499c-1.065994,0.847015 -1.313004,3.240997 -0.332993,3.240997c0.181,0 0.553986,-0.471985 0.828995,-1.048981c0.274002,-0.577026 0.671005,-1.142029 0.880997,-1.256012c0.210007,-0.114014 0.290009,-0.528015 0.178009,-0.92099c-0.131012,-0.458008 -0.024002,-0.804016 0.298996,-0.962006c0.319,-0.157013 0.542999,-0.860992 0.612,-1.927002c0.104996,-1.623993 0.139999,-1.677002 1.071991,-1.621002c1.421005,0.085999 2.116013,-0.993011 1.807007,-2.804016c-0.132996,-0.776001 -0.419006,-1.575989 -0.634995,-1.777985c-0.216003,-0.200989 -0.587997,-0.84201 -0.826004,-1.421997c-0.395004,-0.96701 -0.362,-1.123016 0.395996,-1.834015c1.221008,-1.147003 1.964996,-2.605988 2.194,-4.303986c0.23201,-1.721008 -0.210999,-2.43399 -1.511993,-2.43399c-0.546997,0 -0.94101,-0.239014 -1.136002,-0.688019c-0.264008,-0.608002 -0.841003,-1.152985 -3.576996,-3.380981c-0.955017,-0.778015 -0.636017,-1.255005 0.957993,-1.433014l1.367004,-0.152985l-1.143997,-0.752014c-1.089005,-0.71701 -2.167007,-2.156006 -2.167007,-2.894989c0,-0.476013 1.285995,-1.396027 1.949997,-1.396027c0.88501,0 0.362,-0.721985 -0.928986,-1.283997l-1.195007,-0.520996l1.813004,-0.013977c3.289993,-0.027008 4.306,0.819977 3.570999,2.973999c-0.383011,1.120972 -0.313004,1.352997 1.35199,4.446991c0.965012,1.79599 2.001007,3.347992 2.302002,3.449005c0.300003,0.100983 0.546005,0.436005 0.546005,0.743988c0,0.30899 0.155991,0.645996 0.347992,0.75c0.42601,0.230011 0.431,0.342987 -0.15799,-3.208984c-0.809006,-4.876007 -1.397003,-6.345001 -3.581009,-8.942017c-3.259995,-3.876984 -3.386002,-4.200989 -1.630997,-4.200989c0.796997,0 0.828003,-0.054016 0.414993,-0.703003c-0.784988,-1.235016 -2.834991,-3.600006 -4.569,-5.27301c-1.967987,-1.89801 -4.358002,-4.85199 -5.673996,-7.011993c-0.511002,-0.838989 -2.060989,-2.971008 -3.443985,-4.738007c-2.64502,-3.378998 -4.009003,-5.494995 -4.009003,-6.217987c0,-0.238007 0.237991,-0.606995 0.528992,-0.819c0.707001,-0.514008 1.567993,0.173004 3.04599,2.429993c0.728012,1.112 1.154007,1.522003 1.230011,1.184998c0.063995,-0.285004 -0.149994,-0.872986 -0.475006,-1.30899c-0.324997,-0.434998 -0.503998,-0.868011 -0.397003,-0.962006c0.10701,-0.093994 -0.207993,-1.087006 -0.69899,-2.205994c-0.491013,-1.119995 -1.332993,-3.050995 -1.871002,-4.292023c-0.53801,-1.240997 -1.283005,-2.546997 -1.655991,-2.903992c-0.373016,-0.355988 -0.78302,-1.084991 -0.912018,-1.619995c-0.128998,-0.535004 -0.458984,-1.135986 -0.733994,-1.335999c-0.276001,-0.200989 -0.500992,-0.532013 -0.500992,-0.735992c0,-0.335022 -0.59201,-1.089996 -3.490997,-4.444c-1.429016,-1.654022 -2.622009,-3.604004 -2.351013,-3.84201c0.13501,-0.118011 0.645996,0.015991 1.136993,0.298004c0.490021,0.282013 1.050018,0.427002 1.244019,0.321991c0.194,-0.10498 0.866989,0.302002 1.496002,0.904022c1.60498,1.536987 2.148987,1.36499 0.882996,-0.280029c-0.582001,-0.756989 -1.201004,-1.375977 -1.376007,-1.375977c-0.174988,0 -0.714996,-0.687012 -1.200989,-1.528015c-0.486008,-0.839996 -1.022003,-1.527985 -1.192017,-1.527985c-0.393982,0 -2.117996,-2.562012 -2.117996,-3.147003c0,-0.242004 -0.705994,-1.363007 -1.569,-2.490997c-0.862,-1.128021 -1.567993,-2.311005 -1.567993,-2.628021c0,-0.641998 0.969986,-1.208984 2.067993,-1.208984c0.919006,0 0.905014,-0.263 -0.098999,-1.812988c-1.089005,-1.683014 -4.102493,-3.899017 -5.867508,-4.31601c-0.782288,-0.18399 -2.005493,-0.674011 -2.718292,-1.088013c-0.712891,-0.414001 -2.37149,-1.093994 -3.685898,-1.511993c-1.314301,-0.417999 -2.709396,-0.967987 -3.100204,-1.221985c-2.571289,-1.670013 -3.170898,-1.969025 -3.945099,-1.969025c-1.231506,0 -3.560898,-0.653992 -3.560898,-1c0,-0.390991 7.109512,-0.095001 8.798508,0.365997c0.718292,0.196014 2.307693,1.10202 3.531998,2.013c1.224289,0.911011 2.868393,1.850006 3.653595,2.087006c0.78511,0.238007 2.632492,1.03302 4.105804,1.768005c3.123001,1.55899 3.563004,2.075012 7.117996,8.346008c1.730011,3.052002 2.412994,4.591003 2.412994,5.436981c0,0.649017 0.292999,1.690002 0.650009,2.314026c0.357986,0.622986 0.750992,1.625 0.875,2.224976c0.124008,0.601013 0.615997,1.556 1.093002,2.123016c0.47699,0.566986 0.867004,1.28299 0.867004,1.59198c0,1.013 1.056,2.814026 2.314987,3.947021c1.05101,0.945984 1.179001,1.205994 0.854004,1.737c-0.520004,0.852997 -0.459,2.190002 0.141998,3.110992c0.274002,0.420013 0.503006,1.049988 0.509995,1.398987c0.007004,0.350006 0.494003,1.27301 1.082001,2.053009c0.737,0.975006 1.170013,2.031006 1.389008,3.389008c0.174988,1.084991 0.470001,2.294006 0.656006,2.686005c0.184998,0.391998 0.582001,2.358002 0.881989,4.368988c0.453003,3.032013 0.687012,3.789001 1.372009,4.432007c0.453995,0.425995 0.944,1.118988 1.087006,1.539001c0.313995,0.915009 4.585983,7.23999 5.065994,7.5c0.184998,0.100983 0.656998,0.734009 1.048996,1.40799c0.391998,0.673004 1.625,2.005005 2.740005,2.959015c1.115997,0.953979 2.570999,2.628998 3.235001,3.720978c0.663986,1.093018 1.626999,2.624023 2.139999,3.403015c0.513992,0.778992 1.322998,2.391998 1.798996,3.584991c0.789993,1.984009 0.863998,2.619019 0.863998,7.407013c0,5.727997 -0.173004,6.518982 -2.318008,10.592987c-0.641998,1.218994 -1.171997,2.595001 -1.177994,3.056c-0.005997,0.462006 -0.397003,1.390015 -0.869003,2.063019c-0.526001,0.747986 -0.863998,1.695984 -0.871994,2.444977c-0.007004,0.672028 -0.242996,1.489014 -0.524002,1.81601c-0.281998,0.325989 -0.511993,0.904999 -0.511993,1.287018c0,1.385986 -7.152008,8.117981 -9.927002,9.342987c-0.769012,0.339996 -1.606003,0.764008 -1.859009,0.941986c-1.549988,1.091003 -7.311005,2.65802 -9.772995,2.65802c-3.182999,0 -5.486008,0.60498 -9.931992,2.606995l-4.392609,1.977997l-3.63739,0c-3.319809,0 -3.723419,0.062988 -4.622406,0.726013c-1.303894,0.959991 -7.449203,1.718994 -13.927094,1.718994c-3.447708,0 -4.953918,0.118988 -5.682709,0.449982c-1.495102,0.678009 -3.497299,0.790009 -5.24649,0.295013zm-27.879517,-13.631989c-0.577789,-0.699005 -1.390495,-1.480011 -1.805893,-1.736023c-0.694305,-0.425995 -0.736298,-0.419983 -0.519806,0.075012c0.129608,0.29599 0.235603,0.64801 0.235603,0.78299c0,0.399017 2.184502,2.151001 2.681999,2.151001c0.284607,0 0.059799,-0.483978 -0.591904,-1.27298zm97.515198,-21.439026c-0.031998,-0.536987 0.064011,-1.353973 0.213013,-1.816986c0.378998,-1.169006 -0.311005,-1.084015 -0.998001,0.123993c-0.646011,1.136017 -0.652008,1.201019 -0.199997,2.244019c0.451996,1.040985 1.05899,0.701996 0.984985,-0.551025zm-104.253395,-14.424988c-0.095695,-1.175995 -0.299995,-2.414001 -0.454094,-2.751007c-0.250206,-0.544983 -0.304703,-0.513 -0.509804,0.306c-0.309196,1.234009 -0.3601,6.536011 -0.0718,7.481995c0.416801,1.367004 1.233505,-2.603973 1.035698,-5.036987l0,0zm104.194405,-6.098999c-0.113998,-0.26001 -0.374008,-0.472015 -0.578003,-0.472015c-0.257996,0 -0.253006,0.195007 0.016998,0.637024c0.432999,0.708984 0.88501,0.575989 0.561005,-0.165009zm-1.274002,-1.328003c0,-0.320984 -0.757004,-0.977997 -1.126999,-0.977997c-0.160004,0 -0.123001,0.274994 0.082001,0.610992c0.367996,0.604004 1.044998,0.841003 1.044998,0.367004zm-84.277802,44.868988c-0.760803,-0.901978 -0.761902,-0.916992 -0.065498,-0.916992c1.035194,0 0.885597,-0.394989 -0.860802,-2.276001c-1.606697,-1.72998 -2.017502,-2.919983 -1.008194,-2.919983c0.398697,0 0.486191,-0.154022 0.303696,-0.535004c-0.140999,-0.294006 -0.338104,-0.868011 -0.438095,-1.276001c-0.099899,-0.407013 -0.376106,-1.069 -0.613708,-1.471008c-0.556297,-0.94101 -0.262802,-1.914001 0.577202,-1.914001c0.7575,0 0.8424,-0.325989 0.225899,-0.865997c-0.524498,-0.459991 -0.725601,-6.067993 -0.227402,-6.338013c0.185699,-0.099976 0.2388,-0.455994 0.117805,-0.789978c-0.3032,-0.838013 0.104103,-2.09201 0.679604,-2.09201c0.462097,0 1.254395,2.088013 1.254395,3.306c0,0.325012 0.391998,1.369019 0.871201,2.319c1.020004,2.02301 1.075302,2.582001 0.304398,3.075989c-0.458397,0.294006 -0.490494,0.489014 -0.167892,1.018005c0.524292,0.859009 0.372192,2.571014 -0.266602,2.997009c-0.595901,0.39801 -0.309906,1.27301 0.505898,1.548004c0.311195,0.10498 0.689201,0.014984 0.840096,-0.199005c0.361908,-0.514008 1.04921,-0.121002 1.04921,0.598999c0,0.894012 -0.37941,1.535004 -0.908508,1.535004c-0.627396,0 -0.615196,0.664001 0.037308,2.033997c0.287491,0.604004 0.52269,1.410004 0.52269,1.791016c0,0.381989 -0.235199,0.773987 -0.52269,0.869995c-0.287506,0.096985 -0.522705,0.455994 -0.522705,0.796997c0,0.901001 -0.796097,0.760986 -1.687302,-0.296021zm-1.274796,-2.138977c-0.1185,-0.167999 -0.049301,-0.306 0.153702,-0.306c0.202995,0 0.368996,0.138 0.368996,0.306c0,0.167999 -0.069099,0.304993 -0.153603,0.304993c-0.084595,0 -0.250595,-0.136993 -0.369095,-0.304993zm67.084595,-3.404022c-0.001007,-0.106995 0.233002,-0.587982 0.519012,-1.069977c0.300995,-0.506012 0.521988,-1.692017 0.52298,-2.813995c0.002014,-1.681 0.095001,-1.960022 0.699005,-2.09903c0.799011,-0.182983 0.899002,-1.017975 0.300995,-2.520996c-0.247986,-0.623993 -0.270996,-1.067993 -0.060989,-1.191986c0.182999,-0.108002 0.434998,-0.437012 0.559006,-0.730988c0.260986,-0.621002 1.636993,-0.713013 2.306,-0.153015c0.477997,0.401001 0.466995,0.184998 -0.150009,-2.992004c-0.184006,-0.947998 -0.108994,-1.330994 0.319,-1.643005c0.992996,-0.721985 0.728012,-3.192993 -0.563004,-5.252991c-0.720993,-1.149994 -1.000992,-1.894012 -0.783997,-2.080994c0.550995,-0.472992 2.255005,-0.75 2.255005,-0.365997c0,0.186005 -0.255005,0.338989 -0.56601,0.338989c-0.444,0 -0.478989,0.091003 -0.160995,0.425995c0.231003,0.244019 0.720993,0.355011 1.143005,0.257996c0.632004,-0.144989 0.709,-0.066986 0.529007,0.535004c-0.123016,0.415009 0.052002,1.15802 0.425995,1.806c0.350006,0.605011 0.738998,1.789001 0.863998,2.628998c0.301987,2.041016 -0.285004,5.863007 -1.008011,6.563995c-0.315994,0.30603 -0.645996,1.067017 -0.733994,1.69101c-0.089005,0.623016 -0.345993,1.428009 -0.572998,1.787994c-0.598999,0.951019 -1.638,3.623016 -1.651001,4.246002c-0.007996,0.367004 -0.291,0.535004 -0.901001,0.535004c-0.581009,0 -1.304001,0.395996 -2.089005,1.145996c-0.660004,0.631012 -1.200989,1.059021 -1.201996,0.951996zm7.692993,-5.281982c-0.014984,-0.321991 0.067017,-0.502991 0.183014,-0.401001c0.115997,0.10199 0.127991,0.36499 0.026993,0.585999c-0.111008,0.243988 -0.194,0.17099 -0.210007,-0.184998zm-33.956696,-14.299011c-0.337799,-0.462982 -0.483597,-1.329987 -0.426697,-2.536987c0.052902,-1.122009 -0.161102,-2.531006 -0.551697,-3.631012c-0.769196,-2.166992 -0.763611,-2.02298 -0.078094,-2.02298c0.3974,0 0.486603,-0.156006 0.306992,-0.535004c-0.575302,-1.21701 -0.933701,-2.846008 -0.728806,-3.313995c0.149902,-0.34201 0.4953,-0.45401 1.094208,-0.354004c1.139999,0.191986 1.434692,-0.266022 0.656998,-1.02002c-0.432495,-0.419006 -0.508194,-0.695984 -0.251907,-0.92099c0.627899,-0.549988 -1.491989,-4.662994 -2.857193,-5.542999c-0.191696,-0.123016 0.166092,-0.226013 0.794998,-0.229004c1.325195,-0.005005 1.714111,-0.562012 1.098007,-1.571991c-0.2341,-0.384003 -0.448898,-1.338013 -0.47731,-2.122009c-0.031982,-0.88501 -0.276596,-1.621002 -0.646484,-1.945984c-0.327209,-0.287018 -0.59491,-0.942017 -0.59491,-1.457001c0,-1.215027 -1.192398,-2.887024 -2.473099,-3.468018c-1.221603,-0.553986 -1.313004,-1.053986 -0.192612,-1.053986c0.534912,0 1.422714,0.556 2.558807,1.604004c0.956909,0.882996 2.122314,1.829987 2.589996,2.103973c2.301407,1.351013 4.853607,6.64801 4.831009,10.028015c-0.007401,1.10199 0.114899,2.485992 0.271805,3.074005c0.156799,0.588989 0.153992,1.931 -0.006409,2.983978c-0.182892,1.200012 -0.156708,2.341003 0.070007,3.057007c0.7146,2.257019 0.3992,4.351013 -0.654999,4.351013c-0.455414,0 -0.711395,0.477997 -1.075607,2.009979c-0.530701,2.230011 -0.855896,2.726013 -1.979095,3.018005c-0.568314,0.14801 -0.8965,0.018005 -1.277908,-0.503998zm3.493103,-8.268005c-0.096695,-0.209991 -0.175797,-0.037994 -0.175797,0.382019c0,0.419983 0.079102,0.59198 0.175797,0.381989c0.096603,-0.209991 0.096603,-0.553986 0,-0.764008zm-1.798996,-4.813995c-0.118393,-0.167999 -0.2845,-0.304993 -0.369003,-0.304993c-0.084595,0 -0.153702,0.136993 -0.153702,0.304993c0,0.167999 0.166092,0.306 0.369003,0.306c0.203003,0 0.272202,-0.138 0.153702,-0.306zm2.265091,-2.40799c0,-0.147003 -0.235199,-0.438995 -0.52269,-0.64801c-0.423904,-0.30899 -0.522705,-0.296997 -0.522705,0.063995c0,0.245026 0.104507,0.537018 0.2323,0.649017c0.331009,0.290009 0.813095,0.251984 0.813095,-0.065002zm-1.678497,-6.216003c-0.25,-0.220001 -0.412399,-0.238007 -0.412399,-0.04599c0,0.40799 0.412201,0.768982 0.644699,0.565002c0.099106,-0.085999 -0.005493,-0.320007 -0.2323,-0.519012zm16.475006,18.690002c-0.126999,-0.179016 -0.145996,-0.398987 -0.044006,-0.489014c0.25,-0.218994 0.929001,0.167023 0.929001,0.528015c0,0.389984 -0.600998,0.363983 -0.884995,-0.039001zm-67.526604,-1.278015c-0.260498,-0.378998 -0.707199,-1.031982 -0.992699,-1.451996c-0.748299,-1.10199 -1.458801,-3.561005 -1.199898,-4.152985c0.163094,-0.373016 0.485802,-0.459991 1.222198,-0.330994l1.000603,0.175995l-0.817108,-1.485992c-1.312294,-2.386017 -1.419395,-3.076019 -0.509796,-3.284027c0.786102,-0.181 0.801697,-0.376984 0.172699,-2.15799c-0.205299,-0.580994 -0.071396,-0.743988 0.843002,-1.02301c1.262001,-0.385986 1.280701,-0.47699 0.4972,-2.411987c-0.565399,-1.395996 -0.562202,-1.493011 0.076805,-2.333008c0.404396,-0.531982 0.778091,-1.777985 0.950096,-3.169006c0.155899,-1.260986 0.3423,-2.704987 0.4142,-3.208984c0.0718,-0.505005 0.235893,-2.154999 0.364494,-3.667999c0.168503,-1.983002 0.412003,-2.942993 0.871704,-3.438995c0.350899,-0.378021 0.706406,-0.687012 0.790199,-0.687012c0.172997,0 0.672302,8.377991 0.610001,10.235992c-0.023994,0.715027 -0.249596,1.322021 -0.545296,1.46701c-0.399109,0.196014 -0.458405,0.683014 -0.284004,2.32901c0.149498,1.41098 0.093605,2.149994 -0.173401,2.294983c-0.231102,0.125 -0.393997,1.082001 -0.393997,2.313019c0,1.458984 -0.159599,2.23999 -0.522804,2.557983c-0.293999,0.257996 -0.522697,1.005005 -0.522697,1.708008c0,0.686005 -0.175499,1.494995 -0.389999,1.79599c-0.307106,0.431 -0.226906,0.828003 0.376701,1.865997c0.893097,1.536011 0.544098,2.295013 -0.733398,1.595001c-1.122498,-0.61499 -1.450607,-0.037994 -0.860306,1.513c1.159607,3.045013 1.015808,4.781006 -0.244499,2.951996zm80.2136,-17.727997c-0.434998,-0.54599 -1.856995,-2.015991 -3.159988,-3.266998c-1.303009,-1.25 -2.369019,-2.457977 -2.369019,-2.68399c0,-0.718994 0.906006,-0.748993 2.215012,-0.071014c1.806,0.935028 1.638992,0.190002 -0.330002,-1.463989c-1.287003,-1.082001 -1.55899,-1.487 -1.390991,-2.074005c0.153992,-0.539001 -0.065002,-1.001984 -0.840012,-1.776001c-1.108002,-1.106995 -1.334,-1.893005 -0.612,-2.125c0.30101,-0.096985 0.202011,-0.337006 -0.322998,-0.779999c-0.669998,-0.566986 -0.710007,-0.75 -0.348007,-1.592987c0.367004,-0.854004 0.326996,-1.011993 -0.375,-1.511017c-0.431,-0.306 -0.783997,-0.865997 -0.783997,-1.242981c0,-0.378021 -0.416,-1.165009 -0.924988,-1.751007c-0.804016,-0.924011 -0.867004,-1.145996 -0.479004,-1.69101c0.401993,-0.563995 0.30899,-0.731995 -0.904007,-1.656982c-0.742996,-0.567017 -1.546997,-1.165009 -1.787003,-1.330017c-0.238998,-0.164978 -0.434998,-0.431976 -0.434998,-0.592987c0,-0.464996 0.776001,-0.34201 2.011993,0.319c1.348007,0.720001 1.473007,0.738007 1.473007,0.204987c0,-0.222992 -0.391998,-0.729004 -0.871994,-1.122986c-0.921005,-0.76001 -1.112,-1.222992 -0.503006,-1.222992c0.794998,0 2.393997,1.942993 2.373001,2.882996c-0.011002,0.515991 0.363998,1.625 0.834991,2.466003c0.471008,0.839996 1.054016,2.077972 1.296005,2.750977c0.241013,0.671997 0.863998,1.63501 1.384995,2.139008c1.535004,1.487 3.322006,5.002014 3.362,6.613007c0.02301,0.92099 0.297012,1.73999 0.784012,2.339996c0.412003,0.506989 0.749008,1.079987 0.749008,1.272003c0,0.192993 0.253998,0.781982 0.565979,1.309998c0.541016,0.917999 0.53302,0.984009 -0.174988,1.485992c-0.931,0.661011 -0.927002,0.712006 0.147995,1.947998c1.104996,1.27002 1.557999,3.21701 0.75,3.21701c-0.300003,0 -0.900986,-0.446991 -1.335999,-0.993011zm-80.453003,-22.47998c0,-0.302002 0.617203,-1.076996 1.371399,-1.723022c1.224106,-1.048981 1.397003,-1.383972 1.60881,-3.118988c0.1306,-1.069 0.3759,-1.944 0.545296,-1.944c0.169304,0 0.3078,-0.270996 0.3078,-0.60199c0,-0.330994 0.313698,-1.09201 0.696999,-1.690002c0.383301,-0.598999 0.697006,-1.411011 0.697006,-1.806c0,-0.39502 0.218689,-0.877014 0.485992,-1.071014c0.5065,-0.368988 0.917206,-1.967987 0.909607,-3.541992c-0.002502,-0.520996 0.361496,-1.312012 0.844391,-1.834015c0.802902,-0.866974 0.881699,-0.88797 1.457108,-0.392975c0.517197,0.444977 0.544296,0.647003 0.181297,1.345001c-0.2976,0.572998 -0.316299,0.918976 -0.061806,1.142975c0.668503,0.585999 0.413101,2.19101 -0.463699,2.914001c-0.555496,0.457001 -0.892792,1.154999 -1.022797,2.115997c-0.106499,0.788025 -0.2976,1.915009 -0.4244,2.503021c-0.126701,0.588989 -0.254601,1.376984 -0.284004,1.751984c-0.029495,0.375 -0.408997,0.900024 -0.843491,1.167023c-0.434402,0.266998 -0.693298,0.621979 -0.575302,0.789978c0.118103,0.167023 0.113403,0.778015 -0.0103,1.356018c-0.176605,0.825989 -0.482201,1.145996 -1.420303,1.48999c-0.657394,0.240997 -1.542198,0.721008 -1.966202,1.067993c-0.958893,0.78302 -2.033401,0.826019 -2.033401,0.080017zm18.328201,-18.951019c-0.097397,-0.28598 -0.158997,-1.412994 -0.136795,-2.505981c0.022202,-1.093018 -0.073402,-2.296021 -0.212502,-2.674011c-0.205498,-0.55899 -0.085106,-0.743988 0.641602,-0.985992c0.626701,-0.209015 0.8946,-0.524017 0.8946,-1.052002c0,-0.414001 0.1362,-0.826996 0.302704,-0.917999c0.166496,-0.089996 0.409096,-0.747009 0.539093,-1.459991c0.130096,-0.713013 0.425102,-1.399017 0.655602,-1.524017c0.230598,-0.125 0.423607,-0.84198 0.428902,-1.59198c0.007492,-1.073029 0.204605,-1.524017 0.920303,-2.106018c0.5009,-0.406982 1.162994,-0.824982 1.47139,-0.928986c0.313507,-0.105011 0.560806,-0.533997 0.560806,-0.972015c0,-0.480988 0.234802,-0.843994 0.609802,-0.941986c0.335388,-0.087006 1.026398,-0.344025 1.535492,-0.571014l0.925705,-0.411987l-0.656693,1.268005c-0.361115,0.697998 -0.665009,1.612976 -0.675308,2.03299c-0.0103,0.419983 -0.249008,1.031006 -0.530411,1.356995c-0.281387,0.326996 -0.511688,0.975006 -0.511688,1.44101c0,0.535004 -0.257111,0.968994 -0.696899,1.174988c-0.506409,0.238007 -0.697006,0.640015 -0.697006,1.471008c0,0.628998 -0.234192,1.437012 -0.520599,1.79599c-0.286301,0.358002 -0.5793,1.223999 -0.651093,1.923004c-0.071808,0.699005 -0.307907,1.425995 -0.524796,1.617004c-0.216904,0.190002 -0.394409,0.674988 -0.394409,1.076996c0,0.468018 -0.244507,0.787994 -0.678696,0.886993c-0.506004,0.115997 -0.705505,0.470001 -0.784103,1.390015c-0.080704,0.945984 -0.284599,1.291992 -0.871597,1.480988c-0.5783,0.187012 -0.809708,0.119995 -0.943405,-0.272003zm38.286713,-5.268982c-0.558411,-0.511993 -1.749908,-1.343018 -2.647812,-1.848999c-1.974991,-1.111023 -2.26149,-1.634003 -1.244308,-2.27301l0.769501,-0.481995l-0.723297,-0.524994c-1.21109,-0.878998 -2.050903,-2.247009 -1.941391,-3.162018c0.083389,-0.696991 -0.107498,-0.972992 -0.968903,-1.401978c-0.589996,-0.294006 -1.167496,-0.809021 -1.283188,-1.14502c-0.115723,-0.337006 -0.5466,-0.854004 -0.957413,-1.149994c-0.6978,-0.502991 -0.706696,-0.559998 -0.134903,-0.856995c0.491501,-0.256012 0.537415,-0.44101 0.233215,-0.938995c-0.208511,-0.34201 -0.295212,-0.695007 -0.19281,-0.785004c0.400604,-0.351013 2.697205,0.278992 3.101501,0.85199c0.235291,0.333008 1.027802,0.971008 1.760986,1.417999c1.19751,0.729004 1.31192,0.912018 1.12262,1.796997c-0.24231,1.132996 0.859589,2.822998 2.64769,4.062012c0.917801,0.634979 1.025711,0.863983 0.832993,1.764984c-0.165985,0.776001 -0.04248,1.255005 0.493011,1.915009c0.392899,0.484009 0.714401,1.054016 0.714401,1.266998c0,0.213013 0.238998,0.619019 0.531097,0.902008c0.633194,0.613983 0.333206,1.519989 -0.503204,1.519989c-0.326889,0 -1.0513,-0.417999 -1.609787,-0.928986z" fill="#606060"/>
  </g>
 </g>
</svg>